<svg width="54" height="36" viewBox="0 0 54 36" fill="none" xmlns="http://www.w3.org/2000/svg">
<path d="M50.4783 7.43483H48.1304C47.7172 7.43483 47.3251 7.51936 46.9565 7.65083V3.9131C46.9565 1.97144 45.3764 0.391357 43.4348 0.391357H41.087C39.1453 0.391357 37.5652 1.97144 37.5652 3.9131V12.1305H16.4348V3.9131C16.4348 1.97144 14.8547 0.391357 12.913 0.391357H10.5652C8.62356 0.391357 7.04348 1.97144 7.04348 3.9131V7.65083C6.67487 7.51936 6.28278 7.43483 5.86957 7.43483H3.52174C1.58009 7.43483 0 9.01492 0 10.9566V25.0435C0 26.9852 1.58009 28.5653 3.52174 28.5653H5.86957C6.28278 28.5653 6.67487 28.4807 7.04348 28.3493V32.087C7.04348 34.0287 8.62356 35.6087 10.5652 35.6087H12.913C14.8547 35.6087 16.4348 34.0287 16.4348 32.087V23.8696H37.5652V32.087C37.5652 34.0287 39.1453 35.6087 41.087 35.6087H43.4348C45.3764 35.6087 46.9565 34.0287 46.9565 32.087V28.3493C47.3251 28.4807 47.7172 28.5653 48.1304 28.5653H50.4783C52.4199 28.5653 54 26.9852 54 25.0435V10.9566C54 9.01492 52.4199 7.43483 50.4783 7.43483ZM7.04348 25.0435C7.04348 25.6904 6.51639 26.2174 5.86957 26.2174H3.52174C2.87491 26.2174 2.34783 25.6904 2.34783 25.0435V10.9566C2.34783 10.3097 2.87491 9.78266 3.52174 9.78266H5.86957C6.51639 9.78266 7.04348 10.3097 7.04348 10.9566V25.0435ZM14.087 32.087C14.087 32.7338 13.5599 33.2609 12.913 33.2609H10.5652C9.91839 33.2609 9.3913 32.7338 9.3913 32.087V25.0435V10.9566V3.9131C9.3913 3.26627 9.91839 2.73918 10.5652 2.73918H12.913C13.5599 2.73918 14.087 3.26627 14.087 3.9131V32.087ZM37.5652 21.5218H16.4348V14.4783H37.5652V21.5218ZM44.6087 10.9566V25.0435V32.087C44.6087 32.7338 44.0816 33.2609 43.4348 33.2609H41.087C40.4401 33.2609 39.913 32.7338 39.913 32.087V3.9131C39.913 3.26627 40.4401 2.73918 41.087 2.73918H43.4348C44.0816 2.73918 44.6087 3.26627 44.6087 3.9131V10.9566ZM51.6522 25.0435C51.6522 25.6904 51.1251 26.2174 50.4783 26.2174H48.1304C47.4836 26.2174 46.9565 25.6904 46.9565 25.0435V10.9566C46.9565 10.3097 47.4836 9.78266 48.1304 9.78266H50.4783C51.1251 9.78266 51.6522 10.3097 51.6522 10.9566V25.0435Z" fill="#8C7460"/>
</svg>
