<svg width="32" height="54" viewBox="0 0 32 54" fill="none" xmlns="http://www.w3.org/2000/svg">
<path d="M4.22549 53.8257C4.88995 54.1537 5.6971 53.9773 6.16274 53.3935L31.4752 21.6538C31.8541 21.1787 31.9273 20.5287 31.6636 19.9814C31.3999 19.434 30.846 19.086 30.2383 19.086H20.1356L28.4909 2.286C28.7347 1.79567 28.7076 1.21412 28.4191 0.748677C28.1307 0.283232 27.6218 0 27.0742 0H8.08987C7.36329 0 6.73016 0.49476 6.55466 1.19957L0.226539 26.6124C0.108942 27.0848 0.215465 27.5851 0.515207 27.9686C0.815055 28.3522 1.2749 28.5763 1.76174 28.5763H9.22977L3.39071 52.0253C3.21088 52.7471 3.5584 53.4965 4.22549 53.8257ZM12.7891 27.3767C12.9067 26.9043 12.8002 26.4041 12.5005 26.0205C12.2006 25.6369 11.7408 25.4128 11.2539 25.4128H3.7859L9.32628 3.16343H24.5206L16.1653 19.9634C15.9214 20.4538 15.9486 21.0353 16.2371 21.5007C16.5255 21.9663 17.0344 22.2494 17.5819 22.2494H26.9534L8.21474 45.7461L12.7891 27.3767Z" fill="#8C7460"/>
</svg>
