<svg width="54" height="42" viewBox="0 0 54 42" fill="none" xmlns="http://www.w3.org/2000/svg">
<path d="M2.01627 32.5841C22.5381 26.7504 30.039 38.5392 52.8185 32.5931C53.6639 32.3724 54.1703 31.5081 53.9496 30.6628C53.729 29.8174 52.8647 29.3111 52.0193 29.5316C47.5471 30.699 43.6707 31.1311 40.1604 31.1358L35.5739 23.7435C38.2851 27.1123 43.3239 27.3064 46.2761 24.167C47.5741 22.7869 48.257 20.9838 48.1989 19.09C48.0042 12.7414 40.2258 9.8928 35.942 14.4479C33.8784 16.6423 33.5041 19.7624 34.6659 22.2799L28.3901 12.165L37.7032 9.47757C40.5955 8.643 41.9624 5.33233 40.4929 2.69909C39.4258 0.787157 37.2112 -0.124304 35.1077 0.482774L21.0084 4.55144C17.3527 5.60645 15.7156 9.85599 17.7229 13.0914L21.9845 19.9598C18.9125 21.8667 9.16896 27.9088 9.06549 27.9805C6.61978 28.239 4.00056 28.7306 1.15132 29.5406C0.310949 29.7795 -0.176739 30.6544 0.062148 31.4949C0.300929 32.3355 1.17621 32.823 2.01627 32.5841ZM38.2468 16.6157C39.736 15.0322 42.2219 14.9604 43.8009 16.4453C45.3827 17.9329 45.4592 20.4173 43.9713 21.9995C42.4839 23.5811 39.9993 23.6577 38.4172 22.1699C36.8353 20.6821 36.759 18.1977 38.2468 16.6157ZM25.5069 19.6361L20.4114 11.4234C19.5114 9.97285 20.2441 8.06524 21.8854 7.59158L35.9848 3.52291C36.6669 3.32589 37.3841 3.62152 37.7299 4.24105C38.207 5.09608 37.7611 6.16765 36.8259 6.43754L25.5059 9.70422C24.4983 9.995 24.0483 11.1689 24.6002 12.0583L36.3374 30.9754C28.956 30.3557 22.9583 28.1295 15.3639 27.7914L24.9968 21.8144C25.7392 21.3538 25.9676 20.3785 25.5069 19.6361Z" fill="#8C7460"/>
<path d="M52.0181 36.9144C30.2237 42.6036 22.576 30.8325 1.14986 36.9234C0.309484 37.1623 -0.178204 38.0373 0.0606831 38.8777C0.29957 39.7182 1.17485 40.2059 2.01502 39.9669C22.5368 34.1332 30.0378 45.922 52.8172 39.9759C53.6626 39.7552 54.169 38.8909 53.9484 38.0456C53.7277 37.2002 52.8634 36.6939 52.0181 36.9144Z" fill="#8C7460"/>
</svg>
