<svg width="54" height="48" viewBox="0 0 54 48" fill="none" xmlns="http://www.w3.org/2000/svg">
<path d="M14.2383 6.59766H39.7617C40.6341 6.59766 41.3438 7.30736 41.3438 8.17969C41.3438 9.05202 40.6341 9.76172 39.7617 9.76172H30.1641C27.5471 9.76172 25.418 11.8908 25.418 14.5078V16.0898H28.582V14.5078C28.582 13.6355 29.2917 12.9258 30.1641 12.9258H39.7617C42.3787 12.9258 44.5078 10.7967 44.5078 8.17969C44.5078 5.56269 42.3787 3.43359 39.7617 3.43359H14.2383C13.3659 3.43359 12.6562 2.72389 12.6562 1.85156V0.269531H9.49219V1.85156C9.49219 4.46856 11.6213 6.59766 14.2383 6.59766Z" fill="#8C7460"/>
<path d="M42.6827 35.0742H47.6719C51.1612 35.0742 54 32.2354 54 28.7461C54 25.2568 51.1612 22.418 47.6719 22.418H44.5078V19.2539H9.49219V27.2695C9.49219 31.3264 10.8652 35.1624 13.3471 38.2383H0V41.4023H6.93246L10.0965 47.7305H43.9036L47.0676 41.4023H54V38.2383H40.6529C41.4459 37.2555 42.1247 36.1946 42.6827 35.0742ZM47.6719 25.582C49.4165 25.582 50.8359 27.0014 50.8359 28.7461C50.8359 30.4908 49.4165 31.9102 47.6719 31.9102H43.8881C44.2949 30.4188 44.5078 28.8615 44.5078 27.2695V25.582H47.6719ZM12.6562 27.2695V22.418H41.3438V27.2695C41.3438 31.5349 39.4903 35.5022 36.2414 38.2383H17.7586C14.5097 35.5022 12.6562 31.5349 12.6562 27.2695ZM41.948 44.5664H12.052L10.47 41.4023H43.5301L41.948 44.5664Z" fill="#8C7460"/>
</svg>
