<svg width="54" height="54" viewBox="0 0 54 54" fill="none" xmlns="http://www.w3.org/2000/svg">
<g clip-path="url(#clip0_254_81)">
<path d="M26.8945 49.2012C28.8167 49.2012 30.375 47.6429 30.375 45.7207C30.375 43.7985 28.8167 42.2402 26.8945 42.2402C24.9723 42.2402 23.4141 43.7985 23.4141 45.7207C23.4141 47.6429 24.9723 49.2012 26.8945 49.2012Z" fill="#8C7460"/>
<path d="M53.4337 16.3333C46.5013 8.89533 37.1138 4.79893 26.9996 4.79883C16.8862 4.79893 7.49878 8.89533 0.566229 16.3333C-0.227949 17.1855 -0.181016 18.5203 0.67117 19.3146C1.52346 20.1087 2.85817 20.0619 3.65245 19.2096C9.77806 12.6372 18.0696 9.01768 27.0003 9.01757C35.9304 9.01768 44.2219 12.6372 50.3475 19.2096C50.7629 19.6553 51.3262 19.8808 51.891 19.8808C52.406 19.8808 52.9223 19.6933 53.3288 19.3146C54.181 18.5202 54.228 17.1855 53.4337 16.3333Z" fill="#8C7460"/>
<path d="M45.6886 25.0443C40.5642 19.8812 33.9271 17.0379 27 17.0381C20.0712 17.0382 13.4341 19.8816 8.31126 25.0445C7.49071 25.8715 7.49588 27.207 8.32286 28.0276C9.14984 28.8481 10.4854 28.843 11.3059 28.016C15.6307 23.6574 21.2043 21.2569 27 21.2568C32.7942 21.2566 38.3678 23.6572 42.6941 28.0162C43.1065 28.4316 43.6488 28.6396 44.1913 28.6396C44.7284 28.6396 45.2659 28.4356 45.6774 28.0274C46.5042 27.2067 46.5092 25.8712 45.6886 25.0443Z" fill="#8C7460"/>
<path d="M37.2462 33.7808C34.5019 31.0619 30.5682 29.373 26.98 29.373C26.9796 29.373 26.9788 29.373 26.9784 29.373H26.8264C26.8258 29.373 26.8255 29.373 26.8248 29.373C23.2365 29.373 19.3025 31.062 16.5583 33.7808C15.7308 34.6007 15.7246 35.9362 16.5445 36.7639C16.957 37.1801 17.4999 37.3887 18.043 37.3887C18.5795 37.3887 19.1162 37.1852 19.5275 36.7778C21.4811 34.8422 24.3453 33.5918 26.8251 33.5918C26.8254 33.5918 26.8258 33.5918 26.8261 33.5918H26.9787C26.9791 33.5918 26.9792 33.5918 26.9797 33.5918C29.4591 33.5918 32.3236 34.8423 34.2769 36.7778C35.1044 37.5976 36.4402 37.5917 37.26 36.7639C38.08 35.9364 38.0738 34.6007 37.2462 33.7808Z" fill="#8C7460"/>
</g>
<defs>
<clipPath id="clip0_254_81">
<rect width="54" height="54" fill="white"/>
</clipPath>
</defs>
</svg>
