<svg width="50" height="50" viewBox="0 0 50 50" fill="none" xmlns="http://www.w3.org/2000/svg">
<path d="M17.9082 25.7065V34.1328" stroke="#8C7460" stroke-width="3.5" stroke-linecap="round" stroke-linejoin="round"/>
<path d="M22.2076 29.9209H13.6104" stroke="#8C7460" stroke-width="3.5" stroke-linecap="round" stroke-linejoin="round"/>
<path d="M32.5733 25.9629H32.3325" stroke="#8C7460" stroke-width="3.5" stroke-linecap="round" stroke-linejoin="round"/>
<path d="M36.6548 34.0068H36.4141" stroke="#8C7460" stroke-width="3.5" stroke-linecap="round" stroke-linejoin="round"/>
<path d="M16.1624 2.5C16.1624 4.16609 17.5405 5.51671 19.2404 5.51671H21.6175C24.2401 5.52606 26.3645 7.60809 26.3764 10.1785V11.6974M34.9637 47.4159C28.202 47.5304 21.5643 47.5257 15.0387 47.4159C7.79538 47.4159 2.5 42.2494 2.5 35.1504V24.6889C2.5 17.5899 7.79538 12.4234 15.0387 12.4234C21.6001 12.3112 28.2426 12.3136 34.9637 12.4234C42.207 12.4234 47.5 17.5922 47.5 24.6889V35.1504C47.5 42.2494 42.207 47.4159 34.9637 47.4159Z" stroke="#8C7460" stroke-width="3.5" stroke-linecap="round" stroke-linejoin="round"/>
</svg>
