<svg width="54" height="42" viewBox="0 0 54 42" fill="none" xmlns="http://www.w3.org/2000/svg">
<path d="M50.6542 0.476807H16.5137C14.6687 0.476807 13.1677 1.97774 13.1677 3.82281V6.80041L9.93201 3.56462L4.45026 9.04637L6.93849 11.5346L0 22.4332L7.04575 33.4462H4.38529C2.32032 33.4462 0.640408 35.1261 0.640408 37.1911V41.2875H19.3089V37.1911C19.3089 35.1261 17.629 33.4462 15.5641 33.4462H10.8523L3.80384 22.429L8.4526 15.1269C8.29629 17.3977 9.08193 19.7218 10.814 21.4539L12.1446 22.7846L13.1677 21.7616V28.8923C13.1677 30.7372 14.6686 32.2381 16.5137 32.2381H26.0832L25.5178 38.0812H22.8715V41.2877H25.2075H41.9601H44.2961V38.0812H41.6498L41.0845 32.2381H50.6539C52.4989 32.2381 53.9999 30.7372 53.9999 28.8923V3.82291C54.0001 1.97784 52.4991 0.476807 50.6542 0.476807ZM15.5639 36.6527C15.8608 36.6527 16.1024 36.8942 16.1024 37.1911V38.0811H3.84687V37.1911C3.84687 36.8942 4.0884 36.6527 4.38529 36.6527H15.5639ZM11.1796 9.58679C11.1504 9.61263 11.121 9.63794 11.0921 9.66431C10.9995 9.74869 10.9082 9.83475 10.8192 9.92377C10.8175 9.92545 10.8158 9.92693 10.814 9.92862C10.8123 9.93031 10.8109 9.93199 10.8092 9.93379C10.7204 10.0228 10.6343 10.1139 10.5501 10.2064C10.5234 10.2357 10.4975 10.2656 10.4714 10.2952C10.4341 10.3372 10.3961 10.3785 10.3598 10.4214L8.98501 9.04658L9.93201 8.09947L11.3068 9.47426C11.2637 9.51075 11.2219 9.54914 11.1796 9.58679ZM12.2729 18.1223C11.4768 16.7134 11.4274 14.9945 12.1228 13.5466C12.1277 13.5366 12.1325 13.5266 12.1374 13.5167C12.1617 13.4668 12.187 13.4172 12.2132 13.3679C12.2202 13.3547 12.2274 13.3417 12.2346 13.3286C12.2598 13.2821 12.2857 13.2358 12.3127 13.1901C12.3216 13.1748 12.3309 13.1598 12.3401 13.1445C12.3661 13.101 12.3927 13.0577 12.4202 13.015C12.4314 12.9977 12.4431 12.9806 12.4545 12.9634C12.4811 12.9231 12.508 12.8829 12.5359 12.8434C12.5502 12.8233 12.5652 12.8035 12.5796 12.7837C12.606 12.7474 12.6323 12.7112 12.6598 12.6755C12.6785 12.6511 12.6983 12.6274 12.7176 12.6033C12.7421 12.5726 12.7663 12.5417 12.7917 12.5116C12.8185 12.4796 12.8465 12.4486 12.8743 12.4173C12.8936 12.3954 12.9124 12.3732 12.9321 12.3517C12.9806 12.2987 13.0303 12.2468 13.0813 12.1958C13.1382 12.1389 13.1963 12.084 13.2553 12.0304C13.2723 12.0149 13.2898 12.0002 13.307 11.9849C13.35 11.9469 13.3935 11.9091 13.4376 11.8729C13.4566 11.8572 13.4761 11.8421 13.4953 11.8267C13.5394 11.7916 13.5837 11.7569 13.6287 11.7235C13.6469 11.7098 13.6655 11.6965 13.6841 11.6831C13.7321 11.6484 13.7806 11.6145 13.8295 11.5817C13.8452 11.5712 13.8609 11.5606 13.8769 11.5503C13.9317 11.5146 13.9872 11.48 14.0431 11.4465C14.0535 11.4402 14.064 11.4338 14.0744 11.4276C14.4874 11.1854 14.9282 11.0082 15.382 10.8959C15.3893 10.8941 15.3966 10.8921 15.4038 10.8902C15.4751 10.8729 15.5469 10.8574 15.6188 10.8432C15.6248 10.8421 15.6307 10.8407 15.6368 10.8394C15.7102 10.8253 15.7839 10.8131 15.8578 10.8022C15.8621 10.8016 15.8664 10.8008 15.8708 10.8002C15.9454 10.7896 16.0205 10.7806 16.0955 10.7733C16.0992 10.773 16.1029 10.7726 16.1066 10.7722C16.1814 10.7651 16.2562 10.7597 16.3312 10.7561C16.3359 10.7559 16.3403 10.7556 16.3449 10.7554C16.4179 10.752 16.491 10.7503 16.5641 10.7501C16.5709 10.7501 16.5776 10.75 16.5845 10.75C16.791 10.7503 16.9974 10.7634 17.2025 10.7892C17.207 10.7898 17.2115 10.7906 17.216 10.7911C17.3051 10.8026 17.3939 10.8173 17.4824 10.8336C17.5084 10.8385 17.5343 10.8437 17.5603 10.8489C17.6287 10.8628 17.6967 10.8784 17.7647 10.895C17.7947 10.9025 17.825 10.9094 17.8548 10.9174C17.9354 10.9389 18.0156 10.9625 18.0953 10.9881C18.137 11.0016 18.1782 11.0164 18.2197 11.031C18.2721 11.0493 18.3243 11.068 18.3762 11.0881C18.4213 11.1058 18.466 11.1245 18.5108 11.1434C18.5523 11.161 18.5935 11.1794 18.6348 11.198C18.6807 11.219 18.7265 11.2399 18.7717 11.2624C18.8149 11.2838 18.8576 11.3068 18.9004 11.3295C18.9363 11.3485 18.9726 11.3668 19.008 11.3867L15.6407 14.754L12.2729 18.1223ZM28.7393 38.0811L29.3048 32.238H37.8633L38.4286 38.0811H28.7393ZM50.7936 28.8921C50.7936 28.969 50.731 29.0317 50.6541 29.0317H40.7744H26.3935H16.5137C16.4367 29.0317 16.3742 28.9691 16.3742 28.8921V25.9064H50.7937V28.8921H50.7936ZM50.7936 22.7H16.3742V18.555L23.6701 11.2591L22.3394 9.92851C21.5297 9.11883 20.5902 8.5166 19.5876 8.11951C19.5789 8.11613 19.5702 8.11308 19.5614 8.1097C19.4476 8.06498 19.333 8.02258 19.2176 7.98324C19.1839 7.97175 19.1495 7.96152 19.1156 7.95044C19.026 7.92112 18.9362 7.89243 18.8456 7.86628C18.7879 7.84961 18.7297 7.83485 18.6717 7.81945C18.6053 7.80194 18.5388 7.78391 18.472 7.76809C18.393 7.74921 18.3136 7.73275 18.2341 7.71609C18.1883 7.7067 18.1429 7.69668 18.097 7.68804C18.0002 7.66968 17.9028 7.65386 17.8052 7.63889C17.7768 7.63456 17.7487 7.62992 17.7204 7.62591C17.6093 7.61009 17.4978 7.59702 17.386 7.58594C17.3713 7.58446 17.3566 7.58288 17.3419 7.58141C17.2202 7.56991 17.0981 7.56126 16.9758 7.55525C16.971 7.55504 16.9664 7.55472 16.9616 7.55451C16.7661 7.54523 16.5702 7.54027 16.3737 7.54513V3.82291C16.3737 3.74592 16.4364 3.68338 16.5133 3.68338H50.6538C50.7308 3.68338 50.7933 3.74603 50.7933 3.82291V22.7H50.7936Z" fill="#8C7460"/>
</svg>
