<svg width="29" height="29" viewBox="0 0 29 29" fill="none" xmlns="http://www.w3.org/2000/svg">
<path d="M7.25 4.07812C7.00965 4.07812 6.77914 4.1736 6.60918 4.34356C6.43923 4.51351 6.34375 4.74402 6.34375 4.98438V10.4219H4.53125C4.2909 10.4219 4.06039 10.5174 3.89043 10.6873C3.72048 10.8573 3.625 11.0878 3.625 11.3281V20.3906C3.625 20.631 3.72048 20.8615 3.89043 21.0314C4.06039 21.2014 4.2909 21.2969 4.53125 21.2969V24.0156C4.53125 24.256 4.62673 24.4865 4.79668 24.6564C4.96664 24.8264 5.19715 24.9219 5.4375 24.9219H19.9375C20.1779 24.9219 20.4084 24.8264 20.5783 24.6564C20.7483 24.4865 20.8438 24.256 20.8438 24.0156V21.2969C21.0841 21.2969 21.3146 21.2014 21.4846 21.0314C21.6545 20.8615 21.75 20.631 21.75 20.3906V19.4844H22.6562C24.147 19.4844 25.375 18.2564 25.375 16.7656V14.9531C25.375 13.4623 24.147 12.2344 22.6562 12.2344H21.75V11.3281C21.75 11.0878 21.6545 10.8573 21.4846 10.6873C21.3146 10.5174 21.0841 10.4219 20.8438 10.4219H19.0312V4.98438C19.0312 4.74402 18.9358 4.51351 18.7658 4.34356C18.5959 4.1736 18.3654 4.07812 18.125 4.07812H7.25ZM8.15625 5.89062H17.2188V10.4219H8.15625V5.89062ZM5.4375 12.2344H19.9375V19.4844H5.4375V12.2344ZM21.75 14.0469H22.6562C23.1737 14.0469 23.5625 14.4357 23.5625 14.9531V16.7656C23.5625 17.2831 23.1737 17.6719 22.6562 17.6719H21.75V14.0469ZM6.34375 21.2969H19.0312V23.1094H6.34375V21.2969Z" fill="#8C7460"/>
<path d="M8.1699 15.8594H17.207C18.4323 15.8766 18.4323 14.0288 17.207 14.0469H8.1699C8.04895 14.0449 7.92884 14.0673 7.81666 14.1125C7.70447 14.1578 7.6025 14.225 7.51675 14.3104C7.43101 14.3957 7.36323 14.4973 7.31742 14.6093C7.27161 14.7212 7.24871 14.8412 7.25006 14.9622C7.25821 15.467 7.66874 15.8657 8.16899 15.8594H8.1699Z" fill="#8C7460"/>
</svg>
