<svg width="54" height="54" viewBox="0 0 54 54" fill="none" xmlns="http://www.w3.org/2000/svg">
<path d="M28.5216 10.3566H22.2485C21.3618 10.3566 20.6665 11.082 20.6665 11.9386V34.4678C20.6665 35.3415 21.3748 36.0498 22.2485 36.0498C23.1222 36.0498 23.8306 35.3415 23.8306 34.4678V26.2552C25.2987 26.247 27.4472 26.2362 28.5217 26.2362C30.6422 26.2362 32.6528 25.4155 34.1832 23.9254C35.7326 22.4168 36.586 20.4177 36.586 18.2964C36.586 16.1751 35.7326 14.1759 34.1832 12.6672C32.6527 11.1772 30.6422 10.3566 28.5216 10.3566ZM28.5216 23.0721C27.4534 23.0721 25.3354 23.0827 23.8652 23.091C23.8384 18.1637 23.8538 19.8206 23.8353 13.5206H28.5216C31.1778 13.5206 33.4218 15.7076 33.4218 18.2964C33.4218 20.8851 31.1778 23.0721 28.5216 23.0721Z" fill="#8C7460"/>
<path d="M43.4067 6.79598C39.0244 2.41355 33.1974 0 26.9996 0C20.8017 0 14.9749 2.41355 10.5924 6.79598C-2.14766 19.5361 3.9034 41.4976 21.5152 45.753V51.3633C21.5152 52.8172 22.698 54 24.1519 54H29.8472C31.3011 54 32.4839 52.8172 32.4839 51.3633V45.753C50.1127 41.4935 56.1379 19.5271 43.4067 6.79598ZM29.3199 50.8359H24.6793V46.2914C26.218 46.4441 27.7811 46.4441 29.3199 46.2914V50.8359ZM30.6179 42.9167C18.4203 45.1425 6.96051 35.8403 6.96051 23.2031C6.96051 12.1536 15.9499 3.16406 26.9996 3.16406C38.0492 3.16406 47.0386 12.1536 47.0386 23.2031C47.0386 32.8764 40.1497 41.1773 30.6179 42.9167Z" fill="#8C7460"/>
</svg>
